<svg xmlns="http://www.w3.org/2000/svg" viewBox="0 0 1200 675" role="img" aria-labelledby="title desc">
  <title id="title">Agent Engineering Knowledge System overview</title>
  <desc id="desc">Expert knowledge becomes skills, Agent execution, validation, and team capability.</desc>
  <rect width="1200" height="675" rx="28" fill="#071426"/>
  <text x="60" y="78" fill="#f8fafc" font-family="Inter,Arial" font-size="34" font-weight="700">AGENT ENGINEERING KNOWLEDGE SYSTEM</text>
  <text x="60" y="112" fill="#7dd3fc" font-family="Inter,Arial" font-size="16">FROM EXPERT JUDGMENT TO REUSABLE TEAM CAPABILITY</text>
  <g font-family="Inter,Arial" text-anchor="middle">
    <g fill="#0d223c" stroke="#22d3ee" stroke-width="2"><rect x="55" y="205" width="220" height="250" rx="20"/><rect x="335" y="170" width="245" height="320" rx="20"/><rect x="640" y="205" width="220" height="250" rx="20"/><rect x="920" y="205" width="220" height="250" rx="20"/></g>
    <g fill="#f8fafc" font-size="22" font-weight="700"><text x="165" y="255">EXPERT</text><text x="165" y="285">KNOWLEDGE</text><text x="457" y="220">7 REUSABLE</text><text x="457" y="250">SKILLS</text><text x="750" y="255">AGENT</text><text x="750" y="285">EXECUTION</text><text x="1030" y="255">TEAM</text><text x="1030" y="285">CAPABILITY</text></g>
    <g fill="#94a3b8" font-size="16"><text x="165" y="335">Workflows</text><text x="165" y="365">Decisions</text><text x="165" y="395">Lessons</text><text x="457" y="310">Evaluation</text><text x="457" y="345">Model Adaptation</text><text x="457" y="380">Training Analysis</text><text x="750" y="335">Implement</text><text x="750" y="365">Validate</text><text x="750" y="395">Retry</text><text x="1030" y="335">Repeatable</text><text x="1030" y="365">Reviewable</text><text x="1030" y="395">Scalable</text></g>
    <g fill="#22d3ee" font-size="38"><text x="305" y="345">→</text><text x="610" y="345">→</text><text x="890" y="345">→</text></g>
  </g>
  <rect x="335" y="520" width="525" height="86" rx="18" fill="#15163b" stroke="#8b5cf6" stroke-width="2"/>
  <text x="597" y="555" text-anchor="middle" fill="#c4b5fd" font-family="Inter,Arial" font-size="18" font-weight="700">HUMAN-GUIDED KNOWLEDGE FLYWHEEL</text>
  <text x="597" y="583" text-anchor="middle" fill="#94a3b8" font-family="Inter,Arial" font-size="15">issues.md → knowledge.md → improved execution</text>
</svg>
