<svg xmlns="http://www.w3.org/2000/svg" viewBox="0 0 1200 675" role="img" aria-labelledby="title desc">
  <title id="title">From hard-coded pipelines to configuration-driven infrastructure</title><desc id="desc">Fragmented business pipelines converge into shared configurable services.</desc>
  <rect width="1200" height="675" rx="28" fill="#071426"/><text x="60" y="78" fill="#f8fafc" font-family="Inter,Arial" font-size="32" font-weight="700">FROM HARD-CODED PIPELINES TO SHARED INFRASTRUCTURE</text>
  <g font-family="Inter,Arial" text-anchor="middle"><text x="250" y="145" fill="#fda4af" font-size="18" font-weight="700">BEFORE · FRAGMENTED</text><text x="930" y="145" fill="#67e8f9" font-size="18" font-weight="700">AFTER · CONFIGURATION-DRIVEN</text>
    <g fill="#21162b" stroke="#fb7185" stroke-width="2"><rect x="75" y="190" width="350" height="90" rx="16"/><rect x="75" y="310" width="350" height="90" rx="16"/><rect x="75" y="430" width="350" height="90" rx="16"/></g>
    <g fill="#f8fafc" font-size="18"><text x="250" y="225">BUSINESS A</text><text x="250" y="252">Features + Processing + Model</text><text x="250" y="345">BUSINESS B</text><text x="250" y="372">Features + Processing + Model</text><text x="250" y="465">BUSINESS C</text><text x="250" y="492">Features + Processing + Model</text></g>
    <text x="565" y="365" fill="#38bdf8" font-size="58">→</text>
    <rect x="690" y="185" width="480" height="345" rx="24" fill="#0d223c" stroke="#22d3ee" stroke-width="3"/><text x="930" y="235" fill="#f8fafc" font-size="22" font-weight="700">SHARED PLATFORM</text>
    <g fill="#102a48" stroke="#2563eb"><rect x="740" y="270" width="165" height="90" rx="15"/><rect x="955" y="270" width="165" height="90" rx="15"/><rect x="740" y="400" width="165" height="90" rx="15"/><rect x="955" y="400" width="165" height="90" rx="15"/></g>
    <g fill="#e2e8f0" font-size="17" font-weight="700"><text x="822" y="315">CONFIGURATION</text><text x="1037" y="315">FEATURE SERVICE</text><text x="822" y="445">MODEL SERVICE</text><text x="1037" y="445">CPU / GPU</text></g>
  </g><text x="600" y="605" text-anchor="middle" fill="#94a3b8" font-family="Inter,Arial" font-size="17">Repeated code → Stable contracts · Shared services · Configuration</text>
</svg>
